REM MD5 857ddf8e023d550621cda14e170ebb3c
FILE "Black Dawn (Europe).bin" BINARY
  TRACK 01 MODE2/2352
    INDEX 01 00:00:00
  TRACK 02 AUDIO
    INDEX 00 21:37:34
    INDEX 01 21:39:34
  TRACK 03 AUDIO
    INDEX 00 23:47:38
    INDEX 01 23:49:38
  TRACK 04 AUDIO
    INDEX 00 25:57:65
    INDEX 01 25:59:65
  TRACK 05 AUDIO
    INDEX 00 28:13:45
    INDEX 01 28:15:45
  TRACK 06 AUDIO
    INDEX 00 29:59:17
    INDEX 01 30:01:17
  TRACK 07 AUDIO
    INDEX 00 32:04:17
    INDEX 01 32:06:17
  TRACK 08 AUDIO
    INDEX 00 34:13:24
    INDEX 01 34:15:24
  TRACK 09 AUDIO
    INDEX 00 36:09:24
    INDEX 01 36:11:24
  TRACK 10 AUDIO
    INDEX 00 37:12:16
    INDEX 01 37:14:16
  TRACK 11 AUDIO
    INDEX 00 39:14:01
    INDEX 01 39:16:01
  TRACK 12 AUDIO
    INDEX 00 41:20:53
    INDEX 01 41:22:53
  TRACK 13 AUDIO
    INDEX 00 41:43:39
    INDEX 01 41:45:39
  TRACK 14 AUDIO
    INDEX 00 41:55:25
    INDEX 01 41:57:25
  TRACK 15 AUDIO
    INDEX 00 42:04:57
    INDEX 01 42:06:57
  TRACK 16 AUDIO
    INDEX 00 42:15:41
    INDEX 01 42:17:41
  TRACK 17 AUDIO
    INDEX 00 42:34:05
    INDEX 01 42:36:05
  TRACK 18 AUDIO
    INDEX 00 42:49:70
    INDEX 01 42:51:70
  TRACK 19 AUDIO
    INDEX 00 42:57:72
    INDEX 01 42:59:72
  TRACK 20 AUDIO
    INDEX 00 43:11:01
    INDEX 01 43:13:01
  TRACK 21 AUDIO
    INDEX 00 43:19:23
    INDEX 01 43:21:23
  TRACK 22 AUDIO
    INDEX 00 43:46:56
    INDEX 01 43:48:56
  TRACK 23 AUDIO
    INDEX 00 44:01:58
    INDEX 01 44:03:58
  TRACK 24 AUDIO
    INDEX 00 44:10:58
    INDEX 01 44:12:58
  TRACK 25 AUDIO
    INDEX 00 44:22:56
    INDEX 01 44:24:56
  TRACK 26 AUDIO
    INDEX 00 44:31:05
    INDEX 01 44:33:05
  TRACK 27 AUDIO
    INDEX 00 44:52:32
    INDEX 01 44:54:32
  TRACK 28 AUDIO
    INDEX 00 45:01:08
    INDEX 01 45:03:08
  TRACK 29 AUDIO
    INDEX 00 45:12:43
    INDEX 01 45:14:43
  TRACK 30 AUDIO
    INDEX 00 45:21:45
    INDEX 01 45:23:45
  TRACK 31 AUDIO
    INDEX 00 45:45:64
    INDEX 01 45:47:64
  TRACK 32 AUDIO
    INDEX 00 45:57:67
    INDEX 01 45:59:67
  TRACK 33 AUDIO
    INDEX 00 46:07:11
    INDEX 01 46:09:11
  TRACK 34 AUDIO
    INDEX 00 46:16:37
    INDEX 01 46:18:37
  TRACK 35 AUDIO
    INDEX 00 46:39:23
    INDEX 01 46:41:23
  TRACK 36 AUDIO
    INDEX 00 46:52:04
    INDEX 01 46:54:04
  TRACK 37 AUDIO
    INDEX 00 47:04:06
    INDEX 01 47:06:06
  TRACK 38 AUDIO
    INDEX 00 47:12:06
    INDEX 01 47:14:06
  TRACK 39 AUDIO
    INDEX 00 47:32:69
    INDEX 01 47:34:69
  TRACK 40 AUDIO
    INDEX 00 47:46:51
    INDEX 01 47:48:51
  TRACK 41 AUDIO
    INDEX 00 48:04:74
    INDEX 01 48:06:74
  TRACK 42 AUDIO
    INDEX 00 48:16:60
    INDEX 01 48:18:60
  TRACK 43 AUDIO
    INDEX 00 48:24:57
    INDEX 01 48:26:57
  TRACK 44 AUDIO
    INDEX 00 48:33:02
    INDEX 01 48:35:02
  TRACK 45 AUDIO
    INDEX 00 50:33:18
    INDEX 01 50:35:18
  TRACK 46 AUDIO
    INDEX 00 52:38:24
    INDEX 01 52:40:24
  TRACK 47 AUDIO
    INDEX 00 54:54:27
    INDEX 01 54:56:27
  TRACK 48 AUDIO
    INDEX 00 56:50:26
    INDEX 01 56:52:26
  TRACK 49 AUDIO
    INDEX 00 58:54:62
    INDEX 01 58:56:62
  TRACK 50 AUDIO
    INDEX 00 60:54:20
    INDEX 01 60:56:20
  TRACK 51 AUDIO
    INDEX 00 61:27:36
    INDEX 01 61:29:36
  TRACK 52 AUDIO
    INDEX 00 62:01:74
    INDEX 01 62:03:74
REM LEADOUT 65:04:00
